HIERARCHY
ROOT Hips
{
	OFFSET 0.000000 0.000000 0.000000
	CHANNELS 6 Xposition Yposition Zposition Zrotation Yrotation Xrotation 
	JOINT LHipJoint
	{
		OFFSET 0.000000 0.000000 0.000000
		CHANNELS 3 Zrotation Yrotation Xrotation
		JOINT LeftUpLeg
		{
			OFFSET 1.363060 -1.794630 0.839290
			CHANNELS 3 Zrotation Yrotation Xrotation
			JOINT LeftLeg
			{
				OFFSET 2.448110 -6.726130 0.000000
				CHANNELS 3 Zrotation Yrotation Xrotation
				JOINT LeftFoot
				{
					OFFSET 2.562200 -7.039590 0.000000
					CHANNELS 3 Zrotation Yrotation Xrotation
					JOINT LeftToeBase
					{
						OFFSET 0.157640 -0.433110 2.322550
						CHANNELS 3 Zrotation Yrotation Xrotation
						End Site
						{
							OFFSET 0.000000 0.000000 0.000000
						}
					}
				}
			}
		}
	}
	JOINT RHipJoint
	{
		OFFSET 0.000000 0.000000 0.000000
		CHANNELS 3 Zrotation Yrotation Xrotation
		JOINT RightUpLeg
		{
			OFFSET -1.305520 -1.794630 0.839290
			CHANNELS 3 Zrotation Yrotation Xrotation
			JOINT RightLeg
			{
				OFFSET -2.542530 -6.985550 0.000000
				CHANNELS 3 Zrotation Yrotation Xrotation
				JOINT RightFoot
				{
					OFFSET -2.568260 -7.056230 0.000000
					CHANNELS 3 Zrotation Yrotation Xrotation
					JOINT RightToeBase
					{
						OFFSET -0.164730 -0.452590 2.363150
						CHANNELS 3 Zrotation Yrotation Xrotation
						End Site
						{
							OFFSET 0.000000 0.000000 0.000000
						}
					}
				}
			}
		}
	}
	JOINT LowerBack
	{
		OFFSET 0.000000 0.000000 0.000000
		CHANNELS 3 Zrotation Yrotation Xrotation
		JOINT Spine
		{
			OFFSET 0.028270 2.035590 -0.193380
			CHANNELS 3 Zrotation Yrotation Xrotation
			JOINT Spine1
			{
				OFFSET 0.056720 2.048850 -0.042750
				CHANNELS 3 Zrotation Yrotation Xrotation
				JOINT Neck
				{
					OFFSET 0.000000 0.000000 0.000000
					CHANNELS 3 Zrotation Yrotation Xrotation
					JOINT Neck1
					{
						OFFSET -0.054170 1.746240 0.172020
						CHANNELS 3 Zrotation Yrotation Xrotation
						JOINT Head
						{
							OFFSET 0.104070 1.761360 -0.123970
							CHANNELS 3 Zrotation Yrotation Xrotation
							End Site
							{
								OFFSET 0.000000 0.000000 0.000000
							}
						}
					}
				}
				JOINT LeftShoulder
				{
					OFFSET 0.000000 0.000000 0.000000
					CHANNELS 3 Zrotation Yrotation Xrotation
					JOINT LeftArm
					{
						OFFSET 3.362410 1.200890 -0.311210
						CHANNELS 3 Zrotation Yrotation Xrotation
						JOINT LeftForeArm
						{
							OFFSET 4.983000 -0.000000 -0.000000
							CHANNELS 3 Zrotation Yrotation Xrotation
							JOINT LeftHand
							{
								OFFSET 3.483560 -0.000000 -0.000000
								CHANNELS 3 Zrotation Yrotation Xrotation
								JOINT LeftFingerBase
								{
									OFFSET 0.000000 0.000000 0.000000
									CHANNELS 3 Zrotation Yrotation Xrotation
									JOINT LeftHandIndex1
									{
										OFFSET 0.715260 -0.000000 -0.000000
										CHANNELS 3 Zrotation Yrotation Xrotation
										End Site
										{
											OFFSET 0.000000 0.000000 0.000000
										}
									}
								}
								JOINT LThumb
								{
									OFFSET 0.000000 0.000000 0.000000
									CHANNELS 3 Zrotation Yrotation Xrotation
									End Site
									{
										OFFSET 0.000000 0.000000 0.000000
									}
								}
							}
						}
					}
				}
				JOINT RightShoulder
				{
					OFFSET 0.000000 0.000000 0.000000
					CHANNELS 3 Zrotation Yrotation Xrotation
					JOINT RightArm
					{
						OFFSET -3.136600 1.374050 -0.404650
						CHANNELS 3 Zrotation Yrotation Xrotation
						JOINT RightForeArm
						{
							OFFSET -5.241900 -0.000000 -0.000000
							CHANNELS 3 Zrotation Yrotation Xrotation
							JOINT RightHand
							{
								OFFSET -3.444170 -0.000000 -0.000000
								CHANNELS 3 Zrotation Yrotation Xrotation
								JOINT RightFingerBase
								{
									OFFSET 0.000000 0.000000 0.000000
									CHANNELS 3 Zrotation Yrotation Xrotation
									JOINT RightHandIndex1
									{
										OFFSET -0.622530 -0.000000 -0.000000
										CHANNELS 3 Zrotation Yrotation Xrotation
										End Site
										{
											OFFSET 0.000000 0.000000 0.000000
										}
									}
								}
								JOINT RThumb
								{
									OFFSET 0.000000 0.000000 0.000000
									CHANNELS 3 Zrotation Yrotation Xrotation
									End Site
									{
										OFFSET 0.000000 0.000000 0.000000
									}
								}
							}
						}
					}
				}
			}
		}
	}
}
MOTION
Frames: 11
Frame Time: 0.008333
-20.281957 15.299614 -2.641926 168.900334 87.260538 -161.356353 -12.239433 3.633832 -1.202631 -0.671801 9.251342 4.898055 -1.916095 -0.602795 3.265589 0.548770 3.558818 -3.932055 0.144500 0.000000 -77.705600 8.134165 2.227714 4.276822 1.318166 5.657728 -78.515600 1.025078 -4.189191 47.947637 -0.978756 -1.985170 -6.571650 -0.496899 0.000000 -48.458800 12.125843 -4.297719 -1.154077 1.408769 -5.147376 -2.854898 -8.620688 -5.213759 1.452612 10.439480 -11.308683 -7.690260 -4.210160 -0.313578 -0.160356 0.000000 0.000000 0.000000 2.457257 1.226253 2.596529 -12.454615 -34.124813 1.179824 179.991710 -89.887802 -179.910586 -10.397841 -2.448648 0.278433 0.218906 0.553120 0.000000 0.000000 0.000000 0.000000 0.000000 0.000000 0.000000 20.014164 -11.515498 2.222005 61.507624 -19.235432 -10.740319 3.738450 30.098511 0.026978 4.365797 13.674378 0.517002 0.086984 -0.070942 -0.000000 0.000000 0.000000 0.000000 0.000000 0.000000 0.000000 
-20.016234 15.302573 -2.618820 174.940331 87.605305 -154.997538 -12.578012 3.883619 -1.078095 -0.036303 9.277283 4.378817 -1.771738 -0.335294 4.450734 0.582590 4.093841 -1.559967 0.352001 0.000000 -81.002800 7.933611 2.330233 4.195055 1.685189 6.320297 -78.461041 0.796354 -4.189417 49.576685 -1.169138 -2.875124 -6.594306 -0.578000 -0.000000 -46.657000 12.803021 -4.163432 -1.256136 1.517990 -5.060663 -2.888173 -8.712627 -5.133456 1.442885 10.355027 -11.112903 -7.771659 -4.289553 -0.318766 -0.188481 0.000000 0.000000 0.000000 2.394592 1.497737 2.637441 -12.179253 -33.061433 0.984778 -179.977473 -88.872379 -179.909675 -10.500339 -2.503990 0.286369 0.218243 0.554505 0.000000 0.000000 0.000000 0.000000 0.000000 0.000000 0.000000 20.204342 -11.222106 2.254040 61.217984 -18.377462 -10.859947 3.734424 29.990613 0.027047 4.239328 13.710536 0.503115 0.087135 -0.072404 -0.000000 0.000000 0.000000 0.000000 0.000000 0.000000 0.000000 
-19.747592 15.312338 -2.593506 -179.707321 87.890099 -149.342458 -12.959892 4.101954 -0.955774 0.554637 9.312749 3.710259 -1.605538 -0.070126 5.867160 0.640993 4.652533 1.031118 0.596500 -0.000000 -83.835100 7.690019 2.374688 4.119636 2.090985 6.910438 -78.307053 0.601599 -4.166968 51.011750 -1.357554 -3.727642 -6.756875 -0.641899 0.000000 -44.974600 13.385032 -4.055244 -1.361246 1.613791 -4.995373 -2.919953 -8.801113 -5.074320 1.439878 10.282534 -10.895032 -7.844988 -4.371123 -0.324112 -0.214770 0.000000 0.000000 0.000000 2.313019 1.760173 2.692662 -12.056762 -31.915291 0.989153 -179.947615 -87.974711 -179.909402 -10.567370 -2.554551 0.292721 0.215170 0.553353 0.000000 0.000000 0.000000 0.000000 0.000000 0.000000 0.000000 20.417703 -10.917756 2.276300 60.920511 -17.413210 -10.915939 3.727493 29.869395 0.027042 4.099739 13.750816 0.487727 0.087055 -0.073848 -0.000000 0.000000 0.000000 0.000000 0.000000 0.000000 0.000000 
-19.477099 15.328864 -2.565513 -175.105446 88.112648 -144.459251 -13.350745 4.278258 -0.834106 1.094080 9.340251 2.888797 -1.417967 0.184651 7.535424 0.727125 5.221464 3.794991 0.876700 -0.000001 -85.941400 7.431850 2.360781 4.051548 2.539466 7.418329 -78.037814 0.447348 -4.130919 52.230593 -1.534823 -4.494928 -7.068744 -0.677500 -0.000000 -43.521000 13.887335 -3.971888 -1.472291 1.698581 -4.951340 -2.949914 -8.886466 -5.035406 1.445179 10.227394 -10.659525 -7.906780 -4.454106 -0.329594 -0.237910 0.000000 0.000000 0.000000 2.214936 2.020418 2.758735 -12.078986 -30.721712 1.198888 -179.919828 -87.225602 -179.909733 -10.606542 -2.601447 0.297790 0.209976 0.549549 0.000000 0.000000 0.000000 0.000000 0.000000 0.000000 0.000000 20.658996 -10.610362 2.285716 60.619859 -16.345361 -10.911511 3.718068 29.737942 0.026972 3.943682 13.794978 0.470339 0.086801 -0.075314 -0.000000 0.000000 0.000000 0.000000 0.000000 0.000000 0.000000 
-19.205421 15.351959 -2.533905 -171.457204 88.280166 -140.555036 -13.705605 4.407901 -0.709870 1.545794 9.317095 1.926259 -1.213214 0.420618 9.460393 0.844731 5.812113 6.659102 1.193300 -0.000000 -87.040399 7.195676 2.301911 3.990040 3.012818 7.829661 -77.643685 0.335303 -4.089905 53.228617 -1.691573 -5.130435 -7.532445 -0.675401 -0.000000 -42.371900 14.308423 -3.909817 -1.590840 1.769942 -4.925408 -2.978636 -8.970250 -5.012667 1.455595 10.197797 -10.404768 -7.947971 -4.539096 -0.335348 -0.254919 0.000000 0.000000 0.000000 2.129734 2.249047 2.832705 -12.268911 -29.455834 1.619369 -179.893746 -86.625827 -179.910625 -10.631531 -2.641335 0.301378 0.203091 0.542638 0.000000 0.000000 0.000000 0.000000 0.000000 0.000000 0.000000 20.939074 -10.300030 2.282193 60.325621 -15.187888 -10.857272 3.706466 29.598813 0.026845 3.770209 13.840971 0.450850 0.086426 -0.076854 -0.000000 0.000000 0.000000 0.000000 0.000000 0.000000 0.000000 
-18.933806 15.381616 -2.498522 -168.649761 88.420158 -137.517887 -14.008372 4.490213 -0.581295 1.890623 9.223107 0.825241 -0.999777 0.632038 11.650469 0.993048 6.420723 9.516745 1.542000 0.000000 -86.887200 6.995443 2.212949 3.930776 3.507052 8.150402 -77.110790 0.265696 -4.044859 54.000346 -1.821179 -5.605010 -8.137899 -0.631700 -0.000000 -41.565600 14.647283 -3.859490 -1.712574 1.825330 -4.908033 -3.004587 -9.052387 -4.995910 1.472681 10.196956 -10.132574 -7.968214 -4.624991 -0.341261 -0.265563 0.000000 0.000000 0.000000 2.052338 2.466050 2.910581 -12.598206 -28.163838 2.243265 -179.871544 -86.207600 -179.912038 -10.648155 -2.676193 0.303984 0.194792 0.532645 0.000000 0.000000 0.000000 0.000000 0.000000 0.000000 0.000000 21.260894 -9.986631 2.264786 60.043660 -13.940757 -10.761649 3.693279 29.449742 0.026677 3.580468 13.886602 0.429159 0.085974 -0.078558 -0.000000 0.000000 0.000000 0.000000 0.000000 0.000000 0.000000 
-18.662994 15.417764 -2.459382 -166.577977 88.556347 -135.244638 -14.249250 4.525444 -0.448954 2.109039 9.046099 -0.409721 -0.790098 0.814783 14.111526 1.166039 7.040486 12.236716 1.914600 0.000000 -85.314400 6.838823 2.105922 3.870717 4.011796 8.385460 -76.430161 0.236535 -3.995422 54.547543 -1.919479 -5.902794 -8.866353 -0.548400 0.000000 -41.104601 14.895860 -3.813571 -1.832511 1.861288 -4.891243 -3.027631 -9.132152 -4.977078 1.492829 10.224339 -9.837362 -7.961749 -4.711515 -0.347343 -0.268114 0.000000 0.000000 0.000000 1.995892 2.654409 2.990555 -13.072722 -26.832924 3.060250 -179.854093 -85.973282 -179.913914 -10.666982 -2.705071 0.305710 0.185409 0.519423 0.000000 0.000000 0.000000 0.000000 0.000000 0.000000 0.000000 21.622653 -9.661955 2.236185 59.783578 -12.615511 -10.639842 3.678784 29.289285 0.026469 3.379264 13.927986 0.405866 0.085454 -0.080514 -0.000000 0.000000 0.000000 0.000000 0.000000 0.000000 0.000000 
-18.394170 15.460307 -2.416644 -165.142560 88.707749 -133.637771 -14.423381 4.515726 -0.317632 2.186907 8.790173 -1.776290 -0.598910 0.968992 16.844120 1.352217 7.659592 14.677980 2.297500 0.000001 -82.298800 6.729131 1.989830 3.808327 4.513243 8.539401 -75.599351 0.244343 -3.940641 54.876276 -1.985299 -6.023226 -9.690962 -0.432600 -0.000001 -40.962800 15.045837 -3.766727 -1.943659 1.875025 -4.868690 -3.046469 -9.208328 -4.949892 1.515083 10.279396 -9.515369 -7.927955 -4.797627 -0.353487 -0.262465 0.000000 0.000000 0.000000 1.960236 2.821175 3.071157 -13.670953 -25.486536 4.052367 -179.843374 -85.939817 -179.916208 -10.692321 -2.728734 0.306955 0.175130 0.503108 0.000000 0.000000 0.000000 0.000000 0.000000 0.000000 0.000000 22.021809 -9.319803 2.197998 59.552567 -11.219300 -10.502195 3.663033 29.116284 0.026223 3.173572 13.962434 0.381671 0.084841 -0.082805 -0.000000 0.000000 0.000000 0.000000 0.000000 0.000000 0.000000 
-18.127871 15.509116 -2.370675 -164.232919 88.888322 -132.589920 -14.531138 4.466489 -0.196117 2.120102 8.478645 -3.272150 -0.439098 1.100703 19.838603 1.536897 8.262985 16.712944 2.672600 0.000000 -77.993000 6.665712 1.869935 3.743745 4.998424 8.619110 -74.619335 0.284606 -3.879092 54.995105 -2.020406 -5.980427 -10.579487 -0.295200 0.000000 -41.091500 15.091662 -3.715576 -2.037939 1.865056 -4.835780 -3.060998 -9.278858 -4.910432 1.534055 10.357103 -9.161344 -7.862649 -4.882524 -0.359653 -0.247549 0.000000 0.000000 0.000000 1.959755 2.939952 3.152379 -14.403005 -24.091821 5.196760 -179.840197 -86.096605 -179.918873 -10.731814 -2.745862 0.307621 0.164215 0.483724 0.000000 0.000000 0.000000 0.000000 0.000000 0.000000 0.000000 22.447898 -8.952066 2.155237 59.359103 -9.761863 -10.354035 3.645956 28.928070 0.025942 2.969667 13.989456 0.357374 0.084109 -0.085524 -0.000000 0.000000 0.000000 0.000000 0.000000 0.000000 0.000000 
-17.864829 15.564110 -2.322317 -163.648672 89.105093 -131.898903 -14.585498 4.383273 -0.093611 1.921456 8.146573 -4.902297 -0.315974 1.220408 23.067339 1.706963 8.841050 18.256284 3.021900 0.000000 -72.811400 6.637720 1.744450 3.678907 5.463870 8.639524 -73.497257 0.353022 -3.808050 54.907093 -2.030050 -5.804775 -11.494548 -0.149500 -0.000000 -41.429700 15.038210 -3.656799 -2.109240 1.832796 -4.788600 -3.069084 -9.341600 -4.855229 1.553379 10.452568 -8.768171 -7.773375 -4.964073 -0.365570 -0.225890 0.000000 0.000000 0.000000 1.965887 3.066732 3.234324 -15.205368 -22.747859 6.467929 -179.848954 -86.488356 -179.921893 -10.776675 -2.761005 0.308006 0.152442 0.462018 0.000000 0.000000 0.000000 0.000000 0.000000 0.000000 0.000000 22.891367 -8.548050 2.107225 59.204354 -8.253237 -10.202117 3.627240 28.735373 0.025611 2.783436 14.003604 0.334877 0.083141 -0.088714 -0.000000 0.000000 0.000000 0.000000 0.000000 0.000000 0.000000 
-17.605692 15.625134 -2.272307 -163.247822 89.362308 -131.424114 -14.595935 4.273615 -0.018998 1.600183 7.824596 -6.658503 -0.226939 1.339861 26.480106 1.854228 9.400202 19.275308 3.336100 0.000000 -67.252900 6.637716 1.612352 3.615494 5.901253 8.611924 -72.240905 0.444435 -3.725947 54.619263 -2.020294 -5.530576 -12.402129 -0.006900 0.000000 -41.906900 14.888533 -3.589427 -2.151353 1.779647 -4.725353 -3.071421 -9.393865 -4.783543 1.567139 10.557064 -8.329832 -7.657414 -5.041179 -0.371184 -0.196946 0.000000 0.000000 0.000000 1.990072 3.174795 3.318443 -16.092999 -21.417443 7.837826 -179.870803 -87.097710 -179.925130 -10.829893 -2.772861 0.308110 0.139921 0.438195 0.000000 0.000000 0.000000 0.000000 0.000000 0.000000 0.000000 23.334326 -8.098341 2.059509 59.092923 -6.707799 -10.043087 3.606687 28.543292 0.025236 2.624419 14.006722 0.315576 0.081881 -0.092431 -0.000000 0.000000 0.000000 0.000000 0.000000 0.000000 0.000000 
